# xmcd
#
# Track frame offsets:
# 182
# 14360
# 30447
# 45245
# 61437
# 72770
# 83792
# 99890
# 115577
# 132197
# 143987
# 160312
# 171180
# 184415
# 196535
# 210050
# 224840
# 235430
# 249412
# 261712
#
# Disc length: 3720 seconds
#
#
# Revision: 4
# Processed by: cddbd v1.5PL3 Copyright (c) Steve Scherf et al.
# Submitted via: FreeRIP 2.70 
#
DISCID=150e8614
DTITLE=Almir Sater - Dose Dupla
DYEAR=1900
DGENRE=Country
TTITLE0=Rasta Bonito
TTITLE1=Tristeza do Jeca
TTITLE2=Capim Azul (Instrumental)
TTITLE3=Um Violeiro Toca
TTITLE4=Homeless Souls
TTITLE5=Tennessee Waltz
TTITLE6=Canoa
TTITLE7=Índios Adeus
TTITLE8=Boiada
TTITLE9=Cruzada
TTITLE10=Estradeiro
TTITLE11=Canta Viola
TTITLE12=Semente
TTITLE13=O Carrapicho E A Pimenta
TTITLE14=Flor Do Amor
TTITLE15=Aqui Agora Crianças
TTITLE16=Velhos Amigos
TTITLE17=Luz Da Fé
TTITLE18=Bicho Preguiça
TTITLE19=No Quintal De Casa
EXTD=
EXTT0=
EXTT1=
EXTT2=
EXTT3=
EXTT4=
EXTT5=
EXTT6=
EXTT7=
EXTT8=
EXTT9=
EXTT10=
EXTT11=
EXTT12=
EXTT13=
EXTT14=
EXTT15=
EXTT16=
EXTT17=
EXTT18=
EXTT19=
PLAYORDER=
